<?xml version="1.0" encoding="UTF-8"?>
<svg width="1600px" height="201px" viewBox="0 0 1600 201" version="1.1" xmlns="http://www.w3.org/2000/svg" xmlns:xlink="http://www.w3.org/1999/xlink">
    <!-- Generator: Sketch 56.3 (81716) - https://sketch.com -->
    <title>Border-Top</title>
    <desc>Created with Sketch.</desc>
    <g id="Border-Top" stroke="none" stroke-width="1" fill="none" fill-rule="evenodd">
        <path d="M1597.45951,24.395013 C1557.31978,24.395013 1557.31978,0 1517.18006,0 C1477.04033,0 1477.04033,24.395013 1437.4087,24.395013 C1397.26897,24.395013 1397.26897,0 1357.63735,0 C1317.49762,0 1317.49762,24.395013 1277.86599,24.395013 C1237.72626,24.395013 1237.72626,0 1198.09463,0 C1157.95491,0 1157.95491,24.395013 1118.32328,24.395013 C1078.18355,24.395013 1078.18355,0 1038.55192,0 C998.920292,0 998.412194,24.395013 958.780565,24.395013 C918.640838,24.395013 918.640838,0 879.009209,0 C838.869482,0 838.869482,24.395013 799.237853,24.395013 C759.098126,24.395013 759.098126,0 719.466497,0 C679.834868,0 679.32677,24.395013 639.695141,24.395013 C599.555414,24.395013 599.555414,0 559.923785,0 C519.784058,0 519.784058,24.395013 480.152429,24.395013 C440.012702,24.395013 440.012702,0 400.381073,0 C360.241346,0 360.241346,24.395013 320.609717,24.395013 C280.46999,24.395013 280.46999,0 240.838361,0 C200.698634,0 200.698634,24.395013 161.067005,24.395013 C120.927279,24.395013 120.927279,0 81.2956494,0 C41.6640203,0 41.1559225,24.395013 1.52429343,24.395013 C1.01619562,24.395013 0.508097809,24.395013 0,24.395013 L0,201 L1600,201 L1600,24.395013 L1597.45951,24.395013 Z" id="Path" fill="#7FEBD3" fill-rule="nonzero" transform="translate(800.000000, 100.500000) scale(1, -1) translate(-800.000000, -100.500000) "></path>
    </g>
</svg>