<?xml version="1.0" encoding="UTF-8"?>
<svg width="105px" height="105px" viewBox="0 0 105 105" version="1.1" xmlns="http://www.w3.org/2000/svg" xmlns:xlink="http://www.w3.org/1999/xlink">
    <!-- Generator: Sketch 56.3 (81716) - https://sketch.com -->
    <title>Icon-Book</title>
    <desc>Created with Sketch.</desc>
    <g id="Icon-Book" stroke="none" stroke-width="1" fill="none" fill-rule="evenodd">
        <path d="M38.297638,27.543871 L7,27.543871 L7,93 C20.2740598,93 29.2591509,93 33.9552734,93 C43.8276258,93 48.5670173,95.2595319 53.0079729,99.3754478 C57.3616169,95.3746673 62.7806562,93 70.9926009,93 C76.4672308,93 85.6768993,93 98.6216065,93 L98.6216065,27.543871 L67.4349172,27.543871" id="Path-2" stroke="#000000" stroke-width="8"></path>
        <path d="M52.8108033,98.2233417 L52.8108033,63.6115125" id="Path-3" stroke="#000000" stroke-width="8"></path>
        <path d="M39.7526697,78.7489467 C39.8922877,70.1708329 46.8847391,62.9993975 55.4959204,62.9993975 L65.9966697,62.9993975 L65.9966697,5.26259746 L60.7483945,5.26259746 L55.4995945,5.26259746 C46.8028578,5.26259746 39.7526697,12.3122607 39.7526697,21.0089975 L39.7526697,78.7489467 L39.7463711,78.7489467 C39.7463711,83.0986273 41.509443,87.7149469 44.3595414,90.5650453 L55.5001194,101.705098" id="Stroke-5" stroke="#000000" stroke-width="7.8732"></path>
    </g>
</svg>