<?xml version="1.0" encoding="UTF-8"?>
<svg width="257px" height="138px" viewBox="0 0 257 138" version="1.1" xmlns="http://www.w3.org/2000/svg" xmlns:xlink="http://www.w3.org/1999/xlink">
    <!-- Generator: Sketch 56.3 (81716) - https://sketch.com -->
    <title>Icon-Oodi-Black</title>
    <desc>Created with Sketch.</desc>
    <g id="Icon-Oodi-Black" stroke="none" stroke-width="1" fill="none" fill-rule="evenodd">
        <path d="M110,69 C110,91.6497742 91.6497742,110 69,110 C46.3502258,110 28,91.6497742 28,69 C28,46.3502258 46.3502258,28 69,28 C91.6292022,28 110,46.3707978 110,69" id="Path" fill="#000000" fill-rule="nonzero"></path>
        <path d="M176,69.5 C176,85.2311828 163.231183,98 147.5,98 C131.768817,98 119,85.2311828 119,69.5 C119,53.7688172 131.748387,41 147.5,41 C163.251613,41 176,53.7688172 176,69.5" id="Path" fill="#000000" fill-rule="nonzero"></path>
        <path d="M212.454545,69 C212.454545,57.9662231 203.075425,49 191.485666,49 C189.940365,49 188.437989,49.1637666 187,49.4708291 L187,88.5291709 C188.459451,88.8362334 189.940365,89 191.485666,89 C203.075425,89 212.454545,80.0337769 212.454545,69" id="Path" fill="#000000" fill-rule="nonzero"></path>
        <path d="M229,49.4708291 C227.698565,49.1637666 226.37799,49 225,49 C223.62201,49 222.282297,49.1637666 221,49.4708291 L221,88.5291709 C222.301435,88.8362334 223.62201,89 225,89 C226.37799,89 227.717703,88.8362334 229,88.5291709 L229,49.4708291 Z" id="Path" fill="#000000" fill-rule="nonzero"></path>
    </g>
</svg>