<?xml version="1.0" encoding="UTF-8"?>
<svg width="105px" height="105px" viewBox="0 0 105 105" version="1.1" xmlns="http://www.w3.org/2000/svg" xmlns:xlink="http://www.w3.org/1999/xlink">
    <!-- Generator: Sketch 56.3 (81716) - https://sketch.com -->
    <title>Icon-WC</title>
    <desc>Created with Sketch.</desc>
    <g id="Icon-WC" stroke="none" stroke-width="1" fill="none" fill-rule="evenodd">
        <path d="M98.7272,71.528412 L98.7272,52.9816793 C98.7272,49.2557609 96.4211397,45.9204661 92.940398,44.6120741 L82.9808,40.8684 L73.021202,44.6120741 C69.5400666,45.9204661 67.2344,49.2557609 67.2344,52.9816793 L67.2344,71.528412 L73.1393,71.528412 L73.1393,91.25688 L92.8223,91.25688 L92.8223,71.528412 L98.7272,71.528412 Z" id="Stroke-5" stroke="#000000" stroke-width="7.8732"></path>
        <circle id="Oval" stroke="#000000" stroke-width="6.5" cx="82.9808" cy="23.02248" r="7.77248"></circle>
        <path d="M7,80.5735532 C7,80.5735532 10.9936522,69.395628 14.9873043,49.7106092 C16.1678279,43.8917573 19.266902,39.81864 25.3708,39.81864 C31.474698,39.81864 34.5757689,43.8913616 35.7542957,49.7106092 C39.7479478,69.428865 43.7416,80.5735532 43.7416,80.5735532 L35.3549304,80.5735532 L35.3549304,91.25688 L15.3866696,91.25688 L15.3866696,80.5735532 L7,80.5735532 Z" id="Stroke-7" stroke="#000000" stroke-width="7.8732"></path>
        <circle id="Oval-Copy" stroke="#000000" stroke-width="6.5" cx="25.3708" cy="23.02248" r="7.77248"></circle>
    </g>
</svg>